<svg width="187" height="60" viewBox="0 0 187 60" fill="none" xmlns="http://www.w3.org/2000/svg">
<g clip-path="url(#clip0_312_2)">
<path d="M14.8847 16.162L0 0L13 29L42.0335 60L25 28L38 11L14 28L50 0L14.8847 16.162Z" fill="#E5E6E1"/>
<circle cx="16" cy="6" r="5" fill="#B0BBBA"/>
</g>
<path d="M50.9961 48H53.9961C54.8477 48 55.5273 47.791 56.0352 47.373C56.5469 46.9512 56.8027 46.3516 56.8027 45.5742C56.8027 45.0195 56.6641 44.5703 56.3867 44.2266C56.1094 43.8828 55.748 43.6484 55.3027 43.5234V43.5C55.6621 43.3789 55.9629 43.168 56.2051 42.8672C56.4473 42.5664 56.5684 42.1777 56.5684 41.7012C56.5684 40.9238 56.3223 40.3574 55.8301 40.002C55.3418 39.6465 54.668 39.4688 53.8086 39.4688H50.9961V48ZM51.9453 47.1914V43.957H53.9961C54.6328 43.957 55.0996 44.1035 55.3965 44.3965C55.6973 44.6855 55.8477 45.0762 55.8477 45.5684C55.8477 46.0723 55.6992 46.4688 55.4023 46.7578C55.1055 47.0469 54.6367 47.1914 53.9961 47.1914H51.9453ZM51.9453 43.1602V40.2773H53.8086C54.4492 40.2773 54.9102 40.4004 55.1914 40.6465C55.4727 40.8887 55.6133 41.2422 55.6133 41.707C55.6133 42.1641 55.4727 42.5215 55.1914 42.7793C54.9102 43.0332 54.4492 43.1602 53.8086 43.1602H51.9453ZM58.2148 45.7852C58.2148 46.625 58.4023 47.2246 58.7773 47.584C59.1562 47.9395 59.666 48.1172 60.3066 48.1172C60.7324 48.1172 61.1191 48.0312 61.4668 47.8594C61.8145 47.6875 62.1113 47.4453 62.3574 47.1328H62.3809L62.4219 48H63.2715V41.7656H62.334V46.2188C62.1582 46.5391 61.9219 46.8008 61.625 47.0039C61.332 47.207 60.9902 47.3086 60.5996 47.3086C60.1348 47.3086 59.7754 47.1914 59.5215 46.957C59.2715 46.7227 59.1465 46.3359 59.1465 45.7969V41.7656H58.2148V45.7852ZM64.6367 46.1602V46.1895C64.6367 46.791 64.8535 47.2734 65.2871 47.6367C65.7207 47.9961 66.3555 48.1758 67.1914 48.1758C68.0273 48.1758 68.6523 47.998 69.0664 47.6426C69.4844 47.2871 69.6934 46.8379 69.6934 46.2949C69.6934 45.7559 69.5078 45.3418 69.1367 45.0527C68.7656 44.7637 68.2266 44.541 67.5195 44.3848C66.8125 44.2324 66.3418 44.0781 66.1074 43.9219C65.873 43.7617 65.7559 43.5488 65.7559 43.2832C65.7559 43.0098 65.8711 42.7891 66.1016 42.6211C66.332 42.4492 66.6895 42.3633 67.1738 42.3633C67.6543 42.3633 68.0137 42.4629 68.252 42.6621C68.4941 42.8574 68.6152 43.125 68.6152 43.4648V43.5059H69.5469V43.4707C69.5469 42.9082 69.332 42.4551 68.9023 42.1113C68.4727 41.7637 67.8984 41.5898 67.1797 41.5898C66.4688 41.5898 65.8984 41.7559 65.4688 42.0879C65.043 42.416 64.8301 42.834 64.8301 43.3418C64.8301 43.8457 65.0195 44.2402 65.3984 44.5254C65.7773 44.8105 66.3203 45.0293 67.0273 45.1816C67.7344 45.334 68.1992 45.4902 68.4219 45.6504C68.6484 45.8066 68.7617 46.041 68.7617 46.3535C68.7617 46.6621 68.6211 46.9141 68.3398 47.1094C68.0625 47.3047 67.6797 47.4023 67.1914 47.4023C66.7031 47.4023 66.3105 47.3008 66.0137 47.0977C65.7168 46.8945 65.5684 46.5918 65.5684 46.1895V46.1602H64.6367ZM71.0938 48H72.0254V41.7656H71.0938V48ZM70.9473 39.8613C70.9473 40.0293 71 40.1719 71.1055 40.2891C71.2109 40.4023 71.3633 40.459 71.5625 40.459C71.7539 40.459 71.9023 40.4023 72.0078 40.2891C72.1133 40.1758 72.166 40.0352 72.166 39.8672C72.166 39.6953 72.1133 39.5527 72.0078 39.4395C71.9062 39.3262 71.7559 39.2695 71.5566 39.2695C71.3613 39.2695 71.2109 39.3262 71.1055 39.4395C71 39.5527 70.9473 39.6934 70.9473 39.8613ZM73.8359 48H74.7734V43.5469C74.9453 43.2266 75.1797 42.9648 75.4766 42.7617C75.7734 42.5547 76.1172 42.4512 76.5078 42.4512C76.9727 42.4512 77.3301 42.5684 77.5801 42.8027C77.8301 43.0371 77.9551 43.4258 77.9551 43.9688V48H78.8926V43.9805C78.8926 43.1406 78.7031 42.543 78.3242 42.1875C77.9492 41.8281 77.4414 41.6484 76.8008 41.6484C76.3711 41.6484 75.9824 41.7344 75.6348 41.9062C75.291 42.0742 74.9961 42.3164 74.75 42.6328H74.7266L74.6855 41.7656H73.8359V48ZM80.2285 44.9766C80.2285 45.918 80.4883 46.6875 81.0078 47.2852C81.5273 47.8789 82.2734 48.1758 83.2461 48.1758C83.8438 48.1758 84.3457 48.0547 84.752 47.8125C85.1621 47.5703 85.4688 47.3086 85.6719 47.0273L85.0566 46.5176C84.8691 46.7598 84.625 46.9668 84.3242 47.1387C84.0273 47.3066 83.668 47.3906 83.2461 47.3906C82.5352 47.3906 82.0117 47.1602 81.6758 46.6992C81.3398 46.2344 81.1719 45.6602 81.1719 44.9766V44.7891C81.1719 44.1016 81.332 43.5273 81.6523 43.0664C81.9727 42.6016 82.4453 42.3691 83.0703 42.3691C83.6562 42.3691 84.0879 42.5469 84.3652 42.9023C84.6465 43.2539 84.7871 43.7051 84.7871 44.2559V44.3203H80.7852V45.082H85.7246V44.6836C85.7246 43.7227 85.4961 42.9668 85.0391 42.416C84.582 41.8652 83.9238 41.5898 83.0645 41.5898C82.209 41.5898 81.5215 41.8887 81.002 42.4863C80.4863 43.0801 80.2285 43.8477 80.2285 44.7891V44.9766ZM86.6328 46.1602V46.1895C86.6328 46.791 86.8496 47.2734 87.2832 47.6367C87.7168 47.9961 88.3516 48.1758 89.1875 48.1758C90.0234 48.1758 90.6484 47.998 91.0625 47.6426C91.4805 47.2871 91.6895 46.8379 91.6895 46.2949C91.6895 45.7559 91.5039 45.3418 91.1328 45.0527C90.7617 44.7637 90.2227 44.541 89.5156 44.3848C88.8086 44.2324 88.3379 44.0781 88.1035 43.9219C87.8691 43.7617 87.752 43.5488 87.752 43.2832C87.752 43.0098 87.8672 42.7891 88.0977 42.6211C88.3281 42.4492 88.6855 42.3633 89.1699 42.3633C89.6504 42.3633 90.0098 42.4629 90.248 42.6621C90.4902 42.8574 90.6113 43.125 90.6113 43.4648V43.5059H91.543V43.4707C91.543 42.9082 91.3281 42.4551 90.8984 42.1113C90.4688 41.7637 89.8945 41.5898 89.1758 41.5898C88.4648 41.5898 87.8945 41.7559 87.4648 42.0879C87.0391 42.416 86.8262 42.834 86.8262 43.3418C86.8262 43.8457 87.0156 44.2402 87.3945 44.5254C87.7734 44.8105 88.3164 45.0293 89.0234 45.1816C89.7305 45.334 90.1953 45.4902 90.418 45.6504C90.6445 45.8066 90.7578 46.041 90.7578 46.3535C90.7578 46.6621 90.6172 46.9141 90.3359 47.1094C90.0586 47.3047 89.6758 47.4023 89.1875 47.4023C88.6992 47.4023 88.3066 47.3008 88.0098 47.0977C87.7129 46.8945 87.5645 46.5918 87.5645 46.1895V46.1602H86.6328ZM92.6445 46.1602V46.1895C92.6445 46.791 92.8613 47.2734 93.2949 47.6367C93.7285 47.9961 94.3633 48.1758 95.1992 48.1758C96.0352 48.1758 96.6602 47.998 97.0742 47.6426C97.4922 47.2871 97.7012 46.8379 97.7012 46.2949C97.7012 45.7559 97.5156 45.3418 97.1445 45.0527C96.7734 44.7637 96.2344 44.541 95.5273 44.3848C94.8203 44.2324 94.3496 44.0781 94.1152 43.9219C93.8809 43.7617 93.7637 43.5488 93.7637 43.2832C93.7637 43.0098 93.8789 42.7891 94.1094 42.6211C94.3398 42.4492 94.6973 42.3633 95.1816 42.3633C95.6621 42.3633 96.0215 42.4629 96.2598 42.6621C96.502 42.8574 96.623 43.125 96.623 43.4648V43.5059H97.5547V43.4707C97.5547 42.9082 97.3398 42.4551 96.9102 42.1113C96.4805 41.7637 95.9062 41.5898 95.1875 41.5898C94.4766 41.5898 93.9062 41.7559 93.4766 42.0879C93.0508 42.416 92.8379 42.834 92.8379 43.3418C92.8379 43.8457 93.0273 44.2402 93.4062 44.5254C93.7852 44.8105 94.3281 45.0293 95.0352 45.1816C95.7422 45.334 96.207 45.4902 96.4297 45.6504C96.6562 45.8066 96.7695 46.041 96.7695 46.3535C96.7695 46.6621 96.6289 46.9141 96.3477 47.1094C96.0703 47.3047 95.6875 47.4023 95.1992 47.4023C94.7109 47.4023 94.3184 47.3008 94.0215 47.0977C93.7246 46.8945 93.5762 46.5918 93.5762 46.1895V46.1602H92.6445ZM101.779 43.9629C101.779 45.3027 102.119 46.3398 102.799 47.0742C103.479 47.8086 104.332 48.1758 105.359 48.1758C106.379 48.1758 107.158 47.9004 107.697 47.3496C108.236 46.7949 108.545 46.1172 108.623 45.3164L108.629 45.2578H107.668L107.662 45.3164C107.607 45.8477 107.398 46.3164 107.035 46.7227C106.672 47.1289 106.113 47.332 105.359 47.332C104.598 47.332 103.973 47.0391 103.484 46.4531C102.996 45.8633 102.752 45.0332 102.752 43.9629V43.5059C102.752 42.416 102.996 41.582 103.484 41.0039C103.973 40.4258 104.598 40.1367 105.359 40.1367C106.125 40.1367 106.689 40.3398 107.053 40.7461C107.42 41.1484 107.623 41.6172 107.662 42.1523L107.668 42.2109H108.629V42.1523C108.57 41.3516 108.266 40.6758 107.715 40.125C107.164 39.5703 106.379 39.293 105.359 39.293C104.332 39.293 103.479 39.6621 102.799 40.4004C102.119 41.1348 101.779 42.1699 101.779 43.5059V43.9629ZM109.643 44.9766C109.643 45.918 109.91 46.6875 110.445 47.2852C110.984 47.8789 111.707 48.1758 112.613 48.1758C113.516 48.1758 114.234 47.8789 114.77 47.2852C115.309 46.6875 115.578 45.918 115.578 44.9766V44.7891C115.578 43.8477 115.309 43.0801 114.77 42.4863C114.234 41.8887 113.514 41.5898 112.607 41.5898C111.705 41.5898 110.984 41.8887 110.445 42.4863C109.91 43.0801 109.643 43.8477 109.643 44.7891V44.9766ZM110.598 44.7891C110.598 44.1094 110.766 43.5371 111.102 43.0723C111.438 42.6074 111.939 42.375 112.607 42.375C113.275 42.375 113.777 42.6074 114.113 43.0723C114.453 43.5371 114.623 44.1094 114.623 44.7891V44.9766C114.623 45.6562 114.453 46.2285 114.113 46.6934C113.777 47.1543 113.275 47.3848 112.607 47.3848C111.939 47.3848 111.438 47.1543 111.102 46.6934C110.766 46.2285 110.598 45.6562 110.598 44.9766V44.7891ZM116.639 46.2012C116.639 46.834 116.844 47.3125 117.254 47.6367C117.668 47.957 118.178 48.1172 118.783 48.1172C119.338 48.1172 119.793 48.0137 120.148 47.8066C120.504 47.5957 120.76 47.3594 120.916 47.0977C120.928 47.2617 120.957 47.4277 121.004 47.5957C121.055 47.7637 121.111 47.8984 121.174 48H122.07V47.9062C121.992 47.7344 121.932 47.5371 121.889 47.3145C121.85 47.0879 121.83 46.8477 121.83 46.5938V43.7109C121.83 43.0078 121.623 42.4785 121.209 42.123C120.799 41.7676 120.221 41.5898 119.475 41.5898C118.721 41.5898 118.123 41.7734 117.682 42.1406C117.24 42.5039 117.02 42.9395 117.02 43.4473V43.4766H117.945V43.4473C117.945 43.1504 118.059 42.8945 118.285 42.6797C118.516 42.4609 118.9 42.3516 119.439 42.3516C119.979 42.3516 120.355 42.4766 120.57 42.7266C120.785 42.9766 120.893 43.3047 120.893 43.7109V44.2207H119.328C118.543 44.2207 117.898 44.3945 117.395 44.7422C116.891 45.0898 116.639 45.5762 116.639 46.2012ZM117.57 46.1602C117.57 45.7734 117.729 45.4688 118.045 45.2461C118.365 45.0234 118.834 44.9121 119.451 44.9121H120.893V45.8789C120.893 46.2344 120.699 46.5703 120.312 46.8867C119.93 47.1992 119.494 47.3555 119.006 47.3555C118.514 47.3555 118.15 47.252 117.916 47.0449C117.686 46.834 117.57 46.5391 117.57 46.1602ZM123.213 44.9766C123.213 45.918 123.471 46.6875 123.986 47.2852C124.502 47.8789 125.213 48.1758 126.119 48.1758C126.959 48.1758 127.594 47.9531 128.023 47.5078C128.457 47.0625 128.674 46.5605 128.674 46.002V45.9727H127.766V46.002C127.766 46.373 127.635 46.6973 127.373 46.9746C127.111 47.252 126.693 47.3906 126.119 47.3906C125.451 47.3906 124.957 47.1582 124.637 46.6934C124.32 46.2285 124.162 45.6562 124.162 44.9766V44.7891C124.162 44.1055 124.32 43.5332 124.637 43.0723C124.953 42.6074 125.447 42.375 126.119 42.375C126.693 42.375 127.111 42.5137 127.373 42.791C127.635 43.0684 127.766 43.3926 127.766 43.7637V43.793H128.674V43.7637C128.674 43.2051 128.457 42.7031 128.023 42.2578C127.594 41.8125 126.959 41.5898 126.119 41.5898C125.213 41.5898 124.502 41.8887 123.986 42.4863C123.471 43.0801 123.213 43.8477 123.213 44.7891V44.9766ZM129.957 48H130.895V43.5469C131.07 43.2266 131.305 42.9648 131.598 42.7617C131.895 42.5547 132.238 42.4512 132.629 42.4512C133.09 42.4512 133.447 42.5684 133.701 42.8027C133.955 43.0371 134.082 43.4258 134.082 43.9688V48H135.02V43.9805C135.02 43.1406 134.828 42.543 134.445 42.1875C134.066 41.8281 133.566 41.6484 132.945 41.6484C132.512 41.6484 132.121 41.7344 131.773 41.9062C131.43 42.0742 131.137 42.3086 130.895 42.6094V39H129.957V48Z" fill="#B0BBBA"/>
<path d="M51.8047 32H62.0234V29.9141H54.3945V14.9375H51.8047V32ZM63.4062 26.1992C63.4062 28.0273 63.918 29.5078 64.9414 30.6406C65.9648 31.7656 67.4141 32.3281 69.2891 32.3281C70.4922 32.3281 71.5078 32.0859 72.3359 31.6016C73.1641 31.1094 73.7617 30.543 74.1289 29.9023L72.3945 28.7188C72.0742 29.1719 71.6523 29.5625 71.1289 29.8906C70.6133 30.2109 69.9961 30.3711 69.2773 30.3711C68.1602 30.3711 67.3242 29.9844 66.7695 29.2109C66.2148 28.4297 65.9375 27.4414 65.9375 26.2461V25.7422C65.9375 24.5469 66.1953 23.5664 66.7109 22.8008C67.2344 22.0273 68.0117 21.6406 69.043 21.6406C69.9414 21.6406 70.6172 21.9297 71.0703 22.5078C71.5234 23.0781 71.75 23.7617 71.75 24.5586V24.793H64.9766V26.5625H74.2578V25.625C74.2578 23.7891 73.8008 22.3438 72.8867 21.2891C71.9727 20.2266 70.6797 19.6953 69.0078 19.6953C67.3359 19.6953 65.9844 20.2617 64.9531 21.3945C63.9219 22.5195 63.4062 23.9961 63.4062 25.8242V26.1992ZM75.9453 28.4961C75.9453 29.7148 76.3359 30.6406 77.1172 31.2734C77.8984 31.8984 78.8711 32.2109 80.0352 32.2109C81.0352 32.2109 81.8555 32.0234 82.4961 31.6484C83.1445 31.2656 83.6055 30.832 83.8789 30.3477C83.9023 30.6523 83.9531 30.957 84.0312 31.2617C84.1172 31.5586 84.2148 31.8047 84.3242 32H86.7734V31.8125C86.625 31.4844 86.5117 31.0977 86.4336 30.6523C86.3555 30.1992 86.3164 29.7227 86.3164 29.2227V23.7852C86.3164 22.3945 85.9023 21.3672 85.0742 20.7031C84.2461 20.0312 83.082 19.6953 81.582 19.6953C80.0742 19.6953 78.8711 20.043 77.9727 20.7383C77.082 21.4336 76.6367 22.2773 76.6367 23.2695V23.4336H79.1094V23.293C79.1094 22.8008 79.2969 22.3867 79.6719 22.0508C80.0469 21.7148 80.6523 21.5469 81.4883 21.5469C82.332 21.5469 82.9258 21.75 83.2695 22.1562C83.6211 22.5547 83.7969 23.0898 83.7969 23.7617V24.6055H81.1484C79.625 24.6055 78.375 24.9453 77.3984 25.625C76.4297 26.3047 75.9453 27.2617 75.9453 28.4961ZM78.4648 28.332C78.4648 27.6836 78.7188 27.1758 79.2266 26.8086C79.7344 26.4414 80.5 26.2578 81.5234 26.2578H83.7969V27.7812C83.7969 28.4297 83.4844 29.0234 82.8594 29.5625C82.2422 30.1016 81.5352 30.3711 80.7383 30.3711C79.9648 30.3711 79.3906 30.1914 79.0156 29.832C78.6484 29.4727 78.4648 28.9727 78.4648 28.332ZM88.7422 26.1992C88.7422 27.957 89.1953 29.4023 90.1016 30.5352C91.0078 31.668 92.2383 32.2344 93.793 32.2344C94.6133 32.2344 95.332 32.0625 95.9492 31.7188C96.5742 31.3672 97.0352 30.9453 97.332 30.4531H97.3906L97.4609 32H99.793V14.2227H97.2852V21.3711C96.9492 20.8945 96.4883 20.5117 95.9023 20.2227C95.3164 19.9336 94.6133 19.7891 93.793 19.7891C92.2695 19.7891 91.0469 20.3555 90.125 21.4883C89.2031 22.6211 88.7422 24.0664 88.7422 25.8242V26.1992ZM91.3086 26.2344V25.7891C91.3086 24.6328 91.5586 23.6758 92.0586 22.918C92.5664 22.1523 93.3477 21.7695 94.4023 21.7695C95.1133 21.7695 95.7148 21.9609 96.207 22.3438C96.707 22.7188 97.0664 23.1602 97.2852 23.668V28.332C97.0586 28.8398 96.6953 29.2891 96.1953 29.6797C95.7031 30.0625 95.1016 30.2539 94.3906 30.2539C93.3438 30.2539 92.5664 29.875 92.0586 29.1172C91.5586 28.3516 91.3086 27.3906 91.3086 26.2344ZM108.758 32H111.348V25.543H114.547C116.406 25.543 117.824 25.0586 118.801 24.0898C119.785 23.1211 120.277 21.832 120.277 20.2227C120.277 18.6055 119.785 17.3203 118.801 16.3672C117.816 15.4141 116.402 14.9375 114.559 14.9375H108.758V32ZM111.348 23.5039V16.9883H114.383C115.609 16.9883 116.465 17.2969 116.949 17.9141C117.434 18.5234 117.676 19.2969 117.676 20.2344C117.676 21.1719 117.434 21.9531 116.949 22.5781C116.465 23.1953 115.609 23.5039 114.383 23.5039H111.348ZM122.457 32H124.977V14.2227H122.457V32ZM127.508 28.4961C127.508 29.7148 127.898 30.6406 128.68 31.2734C129.461 31.8984 130.434 32.2109 131.598 32.2109C132.598 32.2109 133.418 32.0234 134.059 31.6484C134.707 31.2656 135.168 30.832 135.441 30.3477C135.465 30.6523 135.516 30.957 135.594 31.2617C135.68 31.5586 135.777 31.8047 135.887 32H138.336V31.8125C138.188 31.4844 138.074 31.0977 137.996 30.6523C137.918 30.1992 137.879 29.7227 137.879 29.2227V23.7852C137.879 22.3945 137.465 21.3672 136.637 20.7031C135.809 20.0312 134.645 19.6953 133.145 19.6953C131.637 19.6953 130.434 20.043 129.535 20.7383C128.645 21.4336 128.199 22.2773 128.199 23.2695V23.4336H130.672V23.293C130.672 22.8008 130.859 22.3867 131.234 22.0508C131.609 21.7148 132.215 21.5469 133.051 21.5469C133.895 21.5469 134.488 21.75 134.832 22.1562C135.184 22.5547 135.359 23.0898 135.359 23.7617V24.6055H132.711C131.188 24.6055 129.938 24.9453 128.961 25.625C127.992 26.3047 127.508 27.2617 127.508 28.4961ZM130.027 28.332C130.027 27.6836 130.281 27.1758 130.789 26.8086C131.297 26.4414 132.062 26.2578 133.086 26.2578H135.359V27.7812C135.359 28.4297 135.047 29.0234 134.422 29.5625C133.805 30.1016 133.098 30.3711 132.301 30.3711C131.527 30.3711 130.953 30.1914 130.578 29.832C130.211 29.4727 130.027 28.9727 130.027 28.332ZM141.008 32H143.527V23.6914C143.793 23.1289 144.168 22.6758 144.652 22.332C145.145 21.9883 145.699 21.8164 146.316 21.8164C147.043 21.8164 147.605 22.0078 148.004 22.3906C148.402 22.7734 148.602 23.418 148.602 24.3242V32H151.121V24.2891C151.121 22.6562 150.754 21.4961 150.02 20.8086C149.293 20.1211 148.328 19.7773 147.125 19.7773C146.344 19.7773 145.637 19.9375 145.004 20.2578C144.371 20.5703 143.863 21 143.48 21.5469H143.422L143.352 20.0234H141.008V32ZM154.156 32H156.676V23.6914C156.941 23.1289 157.316 22.6758 157.801 22.332C158.293 21.9883 158.848 21.8164 159.465 21.8164C160.191 21.8164 160.754 22.0078 161.152 22.3906C161.551 22.7734 161.75 23.418 161.75 24.3242V32H164.27V24.2891C164.27 22.6562 163.902 21.4961 163.168 20.8086C162.441 20.1211 161.477 19.7773 160.273 19.7773C159.492 19.7773 158.785 19.9375 158.152 20.2578C157.52 20.5703 157.012 21 156.629 21.5469H156.57L156.5 20.0234H154.156V32ZM166.602 26.1992C166.602 28.0273 167.113 29.5078 168.137 30.6406C169.16 31.7656 170.609 32.3281 172.484 32.3281C173.688 32.3281 174.703 32.0859 175.531 31.6016C176.359 31.1094 176.957 30.543 177.324 29.9023L175.59 28.7188C175.27 29.1719 174.848 29.5625 174.324 29.8906C173.809 30.2109 173.191 30.3711 172.473 30.3711C171.355 30.3711 170.52 29.9844 169.965 29.2109C169.41 28.4297 169.133 27.4414 169.133 26.2461V25.7422C169.133 24.5469 169.391 23.5664 169.906 22.8008C170.43 22.0273 171.207 21.6406 172.238 21.6406C173.137 21.6406 173.812 21.9297 174.266 22.5078C174.719 23.0781 174.945 23.7617 174.945 24.5586V24.793H168.172V26.5625H177.453V25.625C177.453 23.7891 176.996 22.3438 176.082 21.2891C175.168 20.2266 173.875 19.6953 172.203 19.6953C170.531 19.6953 169.18 20.2617 168.148 21.3945C167.117 22.5195 166.602 23.9961 166.602 25.8242V26.1992ZM179.797 32H182.328V23.832C182.562 23.293 182.918 22.8477 183.395 22.4961C183.871 22.1445 184.422 21.9688 185.047 21.9688C185.25 21.9688 185.438 21.9805 185.609 22.0039C185.781 22.0195 185.941 22.043 186.09 22.0742V19.8594C186.012 19.8281 185.879 19.7969 185.691 19.7656C185.512 19.7266 185.336 19.707 185.164 19.707C184.508 19.707 183.934 19.8867 183.441 20.2461C182.957 20.6055 182.57 21.0312 182.281 21.5234H182.223L182.152 20.0234H179.797V32Z" fill="#222222"/>
<defs>
<clipPath id="clip0_312_2">
<rect width="50" height="60" fill="white"/>
</clipPath>
</defs>
</svg>
